<svg width="251" height="77" viewBox="0 0 251 77" fill="none" xmlns="http://www.w3.org/2000/svg">
<path d="M0 16.5H48V28.5H0V16.5Z" fill="white"/>
<path d="M24 32.5H72V44.5H24V32.5Z" fill="white"/>
<path d="M48 48.5H96V60.5H48V48.5Z" fill="white"/>
<path d="M113.636 62V15.4545H141.545V20.4545H119.273V36.1818H139.455V41.1818H119.273V62H113.636ZM183.017 30C182.517 28.4697 181.858 27.0985 181.04 25.8864C180.237 24.6591 179.275 23.6136 178.153 22.75C177.047 21.8864 175.79 21.2273 174.381 20.7727C172.972 20.3182 171.426 20.0909 169.744 20.0909C166.987 20.0909 164.479 20.803 162.222 22.2273C159.964 23.6515 158.169 25.75 156.835 28.5227C155.502 31.2955 154.835 34.697 154.835 38.7273C154.835 42.7576 155.509 46.1591 156.858 48.9318C158.206 51.7045 160.032 53.803 162.335 55.2273C164.638 56.6515 167.229 57.3636 170.108 57.3636C172.775 57.3636 175.123 56.7955 177.153 55.6591C179.199 54.5076 180.79 52.8864 181.926 50.7955C183.078 48.6894 183.653 46.2121 183.653 43.3636L185.381 43.7273H171.381V38.7273H189.108V43.7273C189.108 47.5606 188.29 50.8939 186.653 53.7273C185.032 56.5606 182.79 58.7576 179.926 60.3182C177.078 61.8636 173.805 62.6364 170.108 62.6364C165.987 62.6364 162.366 61.6667 159.244 59.7273C156.138 57.7879 153.714 55.0303 151.972 51.4545C150.244 47.8788 149.381 43.6364 149.381 38.7273C149.381 35.0455 149.873 31.7348 150.858 28.7955C151.858 25.8409 153.267 23.3258 155.085 21.25C156.903 19.1742 159.055 17.5833 161.54 16.4773C164.025 15.3712 166.759 14.8182 169.744 14.8182C172.199 14.8182 174.487 15.1894 176.608 15.9318C178.744 16.6591 180.646 17.697 182.312 19.0455C183.994 20.3788 185.396 21.9773 186.517 23.8409C187.638 25.6894 188.411 27.7424 188.835 30H183.017ZM198.761 15.4545H205.489L221.307 54.0909H221.852L237.67 15.4545H244.398V62H239.125V26.6364H238.67L224.125 62H219.034L204.489 26.6364H204.034V62H198.761V15.4545Z" fill="white"/>
</svg>
